<?xml version="1.0" encoding="UTF-8" standalone="no"?>
<svg
   xmlns:dc="http://purl.org/dc/elements/1.1/"
   xmlns:cc="http://creativecommons.org/ns#"
   xmlns:rdf="http://www.w3.org/1999/02/22-rdf-syntax-ns#"
   xmlns:svg="http://www.w3.org/2000/svg"
   xmlns="http://www.w3.org/2000/svg"
   xmlns:xlink="http://www.w3.org/1999/xlink"
   id="svg8"
   version="1.1"
   viewBox="0 0 65.199936 46.804386"
   height="46.804386mm"
   width="65.199936mm">
  <defs
     id="defs2">
    <linearGradient
       id="linearGradient996">
      <stop
         id="stop992"
         offset="0"
         style="stop-color:#00147e;stop-opacity:1;" />
      <stop
         id="stop994"
         offset="1"
         style="stop-color:#00147e;stop-opacity:0;" />
    </linearGradient>
    <radialGradient
       gradientUnits="userSpaceOnUse"
       gradientTransform="matrix(0.99999999,0,0,0.67537658,-303.10742,-101.65885)"
       r="123.21248"
       fy="293.69785"
       fx="424.99707"
       cy="293.69785"
       cx="424.99707"
       id="radialGradient1000"
       xlink:href="#linearGradient996" />
    <radialGradient
       r="123.21248"
       fy="293.69785"
       fx="424.99707"
       cy="293.69785"
       cx="424.99707"
       gradientTransform="matrix(0.26489923,0,0,0.14136975,-0.13425617,118.62358)"
       gradientUnits="userSpaceOnUse"
       id="radialGradient1005"
       xlink:href="#linearGradient996" />
  </defs>
  <metadata
     id="metadata5">
    <rdf:RDF>
      <cc:Work
         rdf:about="">
        <dc:format>image/svg+xml</dc:format>
        <dc:type
           rdf:resource="http://purl.org/dc/dcmitype/StillImage" />
        <dc:title></dc:title>
      </cc:Work>
    </rdf:RDF>
  </metadata>
  <g
     transform="translate(-79.847171,-139.22293)"
     id="layer1">
    <path
       id="rect4520"
       d="m 80.158666,143.00253 v 0.39575 33.88692 h 64.576944 v -34.28267 h -27.97273 c 0.0327,0.01 0.0649,0.0208 0.0978,0.0303 0.0499,0.0133 0.10099,0.0202 0.14952,0.0364 0.0263,0.007 0.0343,0.0282 0.0419,0.0478 0.0105,0.037 -0.01,0.0715 -0.0259,0.10548 -0.0266,0.0593 -0.0553,0.11809 -0.0817,0.17743 -0.009,0.022 -0.0202,0.0436 -0.0305,0.0654 0.006,0.007 0.0114,0.0138 0.0166,0.0208 0.0605,-0.0317 0.11427,-0.0505 0.13297,-0.007 7.9e-4,0.002 6e-5,0.005 0,0.006 -1e-5,0.0213 0.002,0.0428 0.007,0.0638 0.0106,0.0468 0.0273,0.0924 0.0455,0.13777 0.0107,0.0319 0.0323,0.0605 0.0435,0.0924 0.005,0.009 0.006,0.0116 0.008,0.0147 h 26.56753 v 32.70051 H 81.159799 v -32.70051 h 26.697391 c 0.005,-0.0212 0.0104,-0.0423 0.0145,-0.0638 0.007,-0.0305 0.0195,-0.0606 0.0264,-0.0912 0.0107,-0.0292 0.0296,-0.0538 0.0512,-0.0789 0.0102,-0.009 0.016,-0.0227 0.0243,-0.0286 0.002,-0.002 0.006,-8.4e-4 0.008,-0.002 0.005,-0.005 0.004,-0.0123 0.0104,-0.0164 0.008,-0.0138 0.0251,-0.0227 0.0316,-0.0356 0.002,-0.0138 0.007,-0.0244 0.0166,-0.0364 0.002,-1.1e-4 0.005,8.4e-4 0.006,-4.1e-4 0.003,-0.002 0.002,-0.0309 0.0124,-0.0327 0.007,-0.0109 0.0121,-0.007 0.0202,-0.0151 0.007,-0.006 0.003,-0.0101 0.016,-0.0106 0.009,-0.0434 0.0486,-0.0789 0.0973,-0.10671 1.4e-4,-2.1e-4 2.5e-4,-6.1e-4 5.2e-4,-8.2e-4 -0.0113,-0.008 -0.0189,-0.0177 -0.0279,-0.0356 -0.009,-0.0422 -0.006,-0.0863 0.003,-0.12838 0.006,-0.0211 0.0123,-0.0426 0.0233,-0.0625 0.0276,-0.0265 0.0342,-0.0387 0.0362,-0.045 z m 36.893944,0.49019 -0.0957,0.0311 c 0.001,0.002 0.003,0.005 0.004,0.007 0.0306,-0.0127 0.0611,-0.0256 0.0916,-0.0384 z"
       style="color:#000000;font-style:normal;font-variant:normal;font-weight:normal;font-stretch:normal;font-size:medium;line-height:normal;font-family:sans-serif;font-variant-ligatures:normal;font-variant-position:normal;font-variant-caps:normal;font-variant-numeric:normal;font-variant-alternates:normal;font-feature-settings:normal;text-indent:0;text-align:start;text-decoration:none;text-decoration-line:none;text-decoration-style:solid;text-decoration-color:#000000;letter-spacing:normal;word-spacing:normal;text-transform:none;writing-mode:lr-tb;direction:ltr;text-orientation:mixed;dominant-baseline:auto;baseline-shift:baseline;text-anchor:start;white-space:normal;shape-padding:0;clip-rule:nonzero;display:inline;overflow:visible;visibility:visible;opacity:0.9;isolation:auto;mix-blend-mode:normal;color-interpolation:sRGB;color-interpolation-filters:linearRGB;solid-color:#000000;solid-opacity:1;vector-effect:none;fill:url(#radialGradient1005);fill-opacity:1;fill-rule:nonzero;stroke:#00cdf2;stroke-width:0.62299007;stroke-linecap:butt;stroke-linejoin:miter;stroke-miterlimit:4;stroke-dasharray:none;stroke-dashoffset:0;stroke-opacity:1;paint-order:markers stroke fill;color-rendering:auto;image-rendering:auto;shape-rendering:auto;text-rendering:auto;enable-background:accumulate" />
    <path
       transform="translate(3.9687501,-8.0697869)"
       id="path4534"
       d="m 105.83333,185.875 c -0.88179,1.76358 -1.76373,3.52747 -3.52778,4.85057 -1.76405,1.3231 -4.409399,2.20488 -7.055551,3.08693"
       style="fill:none;stroke:#00cdf2;stroke-width:0.60000002;stroke-linecap:butt;stroke-linejoin:miter;stroke-miterlimit:4;stroke-dasharray:none;stroke-opacity:1" />
    <path
       transform="translate(1.5875,-8.2020786)"
       id="path4542"
       d="m 116.41667,185.875 c 0.99528,1.99057 1.76384,3.52768 3.52791,4.8507 1.76407,1.32302 4.40974,2.20491 7.05542,3.0868"
       style="fill:none;stroke:#00cdf2;stroke-width:0.60000002;stroke-linecap:butt;stroke-linejoin:miter;stroke-miterlimit:4;stroke-dasharray:none;stroke-opacity:1" />
    <ellipse
       ry="6.614583"
       rx="5.2916665"
       cy="146.18752"
       cx="112.44791"
       id="path4557"
       style="opacity:0.9;fill:#ffff00;fill-opacity:0;stroke:#00cdf2;stroke-width:0.69999999;stroke-linecap:butt;stroke-linejoin:miter;stroke-miterlimit:4;stroke-dasharray:none;stroke-dashoffset:0;stroke-opacity:1;paint-order:markers stroke fill" />
    <path
       id="path4559"
       d="m 108.47917,151.47917 c -3.52747,0.88187 -7.05525,1.76382 -8.819294,5.73278 -1.764044,3.96897 -1.764044,11.0239 -1.764044,18.07972"
       style="fill:none;stroke:#00cdf2;stroke-width:0.69999999;stroke-linecap:butt;stroke-linejoin:miter;stroke-miterlimit:4;stroke-dasharray:none;stroke-opacity:1" />
    <path
       id="path4571"
       d="m 116.41667,151.47917 c 3.64654,0.91164 7.05574,1.76394 8.81953,5.70085 C 127,161.11693 127,168.23585 127,175.29167"
       style="fill:none;stroke:#00cdf2;stroke-width:0.69999999;stroke-linecap:butt;stroke-linejoin:miter;stroke-miterlimit:4;stroke-dasharray:none;stroke-opacity:1" />
    <path
       transform="matrix(0.94474591,0,0,0.97540586,5.6953638,3.8568076)"
       id="path4575"
       d="m 108.47917,148.83334 c -1.76358,0.88179 -3.52747,1.76373 -4.40957,2.89773 -0.8821,1.134 -0.8821,3.27561 -0.8821,5.03977"
       style="fill:none;stroke:#00cdf2;stroke-width:0.72920197;stroke-linecap:butt;stroke-linejoin:miter;stroke-miterlimit:4;stroke-dasharray:none;stroke-opacity:1" />
    <path
       transform="matrix(0.95698533,0,0,0.98366234,5.2399346,2.5622774)"
       id="path4579"
       d="m 116.41667,148.83334 c 1.46161,0.73081 3.52788,1.76394 4.40977,3.02365 0.88189,1.25971 0.88189,3.14969 0.88189,4.91385"
       style="fill:none;stroke:#00cdf2;stroke-width:0.72147679;stroke-linecap:butt;stroke-linejoin:miter;stroke-miterlimit:4;stroke-dasharray:none;stroke-opacity:1" />
    <path
       id="path4591"
       d="m 103.1875,156.77084 c -0.2763,0.074 -0.88163,0.23623 -1.10228,0.69515 -0.22064,0.45893 -0.22064,1.18663 -0.22064,1.95068"
       style="fill:none;stroke:#00cdf2;stroke-width:0.69999999;stroke-linecap:butt;stroke-linejoin:miter;stroke-miterlimit:4;stroke-dasharray:none;stroke-opacity:1" />
    <path
       id="path4595"
       d="m 103.1875,156.77084 c 0.44116,0.11821 0.88213,0.23636 1.10252,0.67251 0.2204,0.43615 0.2204,1.20927 0.2204,1.97332"
       style="fill:none;stroke:#00cdf2;stroke-width:0.69999999;stroke-linecap:butt;stroke-linejoin:miter;stroke-miterlimit:4;stroke-dasharray:none;stroke-opacity:1" />
    <ellipse
       ry="0.58771157"
       rx="0.60357642"
       cy="160.05582"
       cx="101.92039"
       id="path4611"
       style="opacity:0.9;fill:#000000;fill-opacity:1;stroke:#00cdf2;stroke-width:0.69999999;stroke-linecap:butt;stroke-linejoin:miter;stroke-miterlimit:4;stroke-dasharray:none;stroke-dashoffset:0;stroke-opacity:1;paint-order:markers stroke fill" />
    <ellipse
       ry="0.58771157"
       rx="0.60357642"
       cy="160.07581"
       cx="104.52593"
       id="path4611-3"
       style="opacity:0.9;fill:#000000;fill-opacity:1;stroke:#00cdf2;stroke-width:0.69999999;stroke-linecap:butt;stroke-linejoin:miter;stroke-miterlimit:4;stroke-dasharray:none;stroke-dashoffset:0;stroke-opacity:1;paint-order:markers stroke fill" />
    <ellipse
       ry="0.58771157"
       rx="0.60357642"
       cy="157.41653"
       cx="121.61741"
       id="path4611-6"
       style="opacity:0.9;fill:#000000;fill-opacity:1;stroke:#00cdf2;stroke-width:0.69999999;stroke-linecap:butt;stroke-linejoin:miter;stroke-miterlimit:4;stroke-dasharray:none;stroke-dashoffset:0;stroke-opacity:1;paint-order:markers stroke fill" />
    <path
       id="path5011"
       d="m 108.47917,151.47917 c 1.94024,2.60169 3.88052,5.20343 4.91682,9.03982 1.0363,3.8364 1.16858,8.9075 1.30088,13.97893"
       style="fill:none;stroke:#00cdf2;stroke-width:0.69999999;stroke-linecap:butt;stroke-linejoin:miter;stroke-miterlimit:4;stroke-dasharray:none;stroke-opacity:1" />
    <path
       id="path5015"
       d="m 116.41667,151.47917 c -1.23455,2.24864 -2.46927,4.4976 -3.70417,6.74688"
       style="fill:none;stroke:#00cdf2;stroke-width:0.69999999;stroke-linecap:butt;stroke-linejoin:miter;stroke-miterlimit:4;stroke-dasharray:none;stroke-opacity:1" />
    <path
       id="path5021"
       d="m 108.58342,151.48172 -2.08284,3.10095 7.01222,6.33672"
       style="fill:none;stroke:#00cdf2;stroke-width:0.69999999;stroke-linecap:butt;stroke-linejoin:miter;stroke-miterlimit:4;stroke-dasharray:none;stroke-opacity:1" />
    <path
       id="path5023"
       d="m 116.41667,151.47917 1.5875,2.38125 -4.9196,5.51491"
       style="fill:none;stroke:#00cdf2;stroke-width:0.69999999;stroke-linecap:butt;stroke-linejoin:miter;stroke-miterlimit:4;stroke-dasharray:none;stroke-opacity:1" />
  </g>
</svg>
